<?xml version="1.0" encoding="UTF-8" standalone="no"?>
<!-- Created with Inkscape (http://www.inkscape.org/) -->

<svg
   xmlns:dc="http://purl.org/dc/elements/1.1/"
   xmlns:cc="http://creativecommons.org/ns#"
   xmlns:rdf="http://www.w3.org/1999/02/22-rdf-syntax-ns#"
   xmlns:svg="http://www.w3.org/2000/svg"
   xmlns="http://www.w3.org/2000/svg"
   xmlns:sodipodi="http://sodipodi.sourceforge.net/DTD/sodipodi-0.dtd"
   xmlns:inkscape="http://www.inkscape.org/namespaces/inkscape"
   width="600"
   height="600"
   viewBox="0 0 800.00001 800.00001"
   id="svg2"
   version="1.1"
   inkscape:version="0.91 r13725"
   sodipodi:docname="spiral.svg">
  <defs
     id="defs4" />
  <sodipodi:namedview
     id="base"
     pagecolor="#f7f1e3"
     bordercolor="#f7f1e3"
     borderopacity="1.0"
     inkscape:pageopacity="0.0"
     inkscape:pageshadow="2"
     inkscape:zoom="0.7"
     inkscape:cx="309.06102"
     inkscape:cy="407.78537"
     inkscape:document-units="px"
     inkscape:current-layer="layer1"
     showgrid="false"
     units="px"
     inkscape:window-width="1440"
     inkscape:window-height="851"
     inkscape:window-x="0"
     inkscape:window-y="1"
     inkscape:window-maximized="1" />
  <metadata
     id="metadata7">
    <rdf:RDF>
      <cc:Work
         rdf:about="">
        <dc:format>image/svg+xml</dc:format>
        <dc:type
           rdf:resource="http://purl.org/dc/dcmitype/StillImage" />
        <dc:title></dc:title>
      </cc:Work>
    </rdf:RDF>
  </metadata>
  <g
     inkscape:label="Layer 1"
     inkscape:groupmode="layer"
     id="layer1"
     transform="translate(0,-252.36216)">
    <path
       sodipodi:type="spiral"
       fill="#f7f1e3"
       stroke="#16a085"
       stroke-width="16"
       class="spiral"
       id="path4140"
       sodipodi:cx="421.42856"
       sodipodi:cy="640.93359"
       sodipodi:expansion="1.8"
       sodipodi:revolution="5"
       sodipodi:radius="389.48685"
       sodipodi:argument="-23.366512"
       sodipodi:t0="0"
       d="m 421.42856,640.93359 c -0.16133,0.81494 -1.54006,-0.0868 -1.73897,-0.34424 -1.72913,-2.23784 0.88531,-5.01996 2.9377,-5.7112 5.57546,-1.8778 10.49798,3.47591 11.36475,8.5425 1.70365,9.95841 -7.51895,17.82697 -16.73771,18.59921 -15.36154,1.28682 -26.90391,-12.89087 -27.335,-27.32381 -0.64974,-21.75316 19.51271,-37.64985 40.16967,-37.51104 29.10196,0.19554 50.00257,27.32766 49.07843,55.17853 -1.24034,37.38011 -36.29172,63.91139 -72.27436,61.99671 -46.56338,-2.47768 -79.33379,-46.36914 -76.23158,-91.39484 3.90178,-56.63058 57.53002,-96.23338 112.48746,-91.75333 67.56306,5.50765 114.57841,69.74867 108.53587,135.50696 -7.29095,79.34419 -83.00268,134.34084 -160.41367,126.55598 C 299.31202,784.02712 235.77553,696.00279 245.47834,606.10261 256.85341,500.70825 358.01791,428.0825 461.22994,439.87519 580.86755,453.54461 663.12367,568.66384 649.07247,685.99783 632.9443,820.67543 503.0676,913.09546 370.81304,896.62006 220.30908,877.87126 117.19859,732.44523 136.26119,584.48205 157.79016,417.37501 319.54735,303.05398 483.99742,324.86432 668.47531,349.33087 794.52096,528.19175 769.80457,709.89787 742.24502,912.50599 545.51662,1050.7847 345.79375,1023.0061" />
  </g>
</svg>
